<svg xmlns="http://www.w3.org/2000/svg" xmlns:xlink="http://www.w3.org/1999/xlink" width="20" height="20" viewBox="0 0 20 20">
  <defs>
    <clipPath id="clip-call_">
      <rect width="20" height="20"/>
    </clipPath>
  </defs>
  <g id="call_" data-name="call " clip-path="url(#clip-call_)">
    <g id="Group_663" data-name="Group 663" transform="translate(0.772 1)">
      <path id="Path_1267" data-name="Path 1267" d="M16.975,12.114a10.478,10.478,0,0,1-3.29-.524,1.5,1.5,0,0,0-1.463.309l-2.075,1.566A11.468,11.468,0,0,1,4.99,8.31L6.51,6.289a1.491,1.491,0,0,0,.367-1.511,10.5,10.5,0,0,1-.526-3.3A1.482,1.482,0,0,0,4.872,0H1.481A1.482,1.482,0,0,0,0,1.481,16.993,16.993,0,0,0,16.975,18.456a1.482,1.482,0,0,0,1.481-1.481V13.595a1.482,1.482,0,0,0-1.481-1.481Z" fill="#faf076"/>
    </g>
  </g>
</svg>
